<svg width="669" height="577" viewBox="0 0 669 577" fill="none" xmlns="http://www.w3.org/2000/svg">
<path d="M273.438 530.125C262.344 530.125 253.281 521.062 253.281 509.969C253.281 498.875 262.344 489.812 273.438 489.812C284.531 489.812 293.594 498.875 293.594 509.969C293.672 521.062 284.531 530.125 273.438 530.125Z" fill="#0241F1"/>
<path d="M563.125 327.781C531.484 327.781 505.781 353.484 505.781 385.125C505.781 416.766 531.484 442.469 563.125 442.469C594.766 442.469 620.469 416.766 620.469 385.125C620.469 353.484 594.766 327.781 563.125 327.781ZM521.406 385.125C521.406 362.156 540.156 343.406 563.125 343.406C586.094 343.406 604.844 362.156 604.844 385.125C604.844 408.094 586.094 426.844 563.125 426.844C540.078 426.844 521.406 408.094 521.406 385.125Z" fill="#0241F1"/>
<path d="M84.5312 215.906C83.125 211.844 78.75 209.656 74.6094 210.984L60 215.906C53.6719 209.5 44.9219 205.516 35.1562 205.516C15.9375 205.516 0.234375 221.141 0.234375 240.437C0.234375 259.734 15.8594 275.359 35.1562 275.359C54.4531 275.359 70.0781 259.734 70.0781 240.437C70.0781 236.687 69.4531 233.016 68.3594 229.656L79.6094 225.906C83.6719 224.422 85.8594 220.047 84.5312 215.906ZM35.2344 259.656C24.6094 259.656 15.9375 250.984 15.9375 240.359C15.9375 229.734 24.6094 221.062 35.2344 221.062C45.8594 221.062 54.5312 229.734 54.5312 240.359C54.5312 250.984 45.8594 259.656 35.2344 259.656ZM192.344 225.906L189.609 217.312C199.219 211.062 205.625 200.281 205.625 188.016C205.625 168.797 190 153.094 170.703 153.094C151.406 153.094 135.781 168.719 135.781 188.016C135.781 207.312 151.406 222.938 170.703 222.938C172.109 222.938 173.516 222.859 174.844 222.703L177.344 230.672C178.359 234.031 181.484 236.141 184.766 236.141C185.547 236.141 186.328 235.984 187.109 235.75C191.406 234.422 193.672 229.969 192.344 225.906ZM177.891 205.906C177.578 205.984 177.266 206.141 177.031 206.219C175.078 206.922 172.969 207.312 170.781 207.312C160.156 207.312 151.484 198.641 151.484 188.016C151.484 177.391 160.156 168.719 170.781 168.719C181.406 168.719 190.078 177.391 190.078 188.016C190.078 196.062 185 203.016 177.891 205.906ZM199.062 280.75C199.844 280.75 200.625 280.594 201.406 280.359C205.547 279.031 207.812 274.656 206.484 270.594L201.797 255.672C200.469 251.531 196.094 249.266 192.031 250.594C187.891 251.922 185.625 256.297 186.953 260.359L191.641 275.281C192.656 278.641 195.703 280.75 199.062 280.75ZM277.188 286.688L270.938 291.453C267.5 294.031 266.797 298.953 269.453 302.391C271.016 304.422 273.359 305.438 275.703 305.438C277.344 305.438 278.984 304.891 280.391 303.875L286.641 299.109C290.078 296.531 290.781 291.609 288.125 288.172C285.547 284.734 280.625 284.109 277.188 286.688ZM350.312 240.906C347.734 237.469 342.812 236.766 339.375 239.422L333.125 244.187C329.688 246.766 328.984 251.687 331.641 255.125C333.203 257.156 335.547 258.172 337.891 258.172C339.531 258.172 341.172 257.625 342.578 256.609L348.828 251.844C352.266 249.266 352.969 244.344 350.312 240.906ZM308.281 263.016L302.031 267.781C298.594 270.359 297.891 275.281 300.547 278.719C302.109 280.75 304.453 281.766 306.797 281.766C308.437 281.766 310.078 281.219 311.484 280.203L317.734 275.437C321.172 272.859 321.875 267.937 319.219 264.5C316.641 261.141 311.719 260.438 308.281 263.016ZM246.094 310.359L243.281 312.469C237.5 306.609 229.531 302.938 220.703 302.938C219.375 302.938 218.125 303.016 216.875 303.172L216.016 300.359C214.688 296.219 210.312 293.953 206.172 295.281C202.031 296.609 199.766 300.984 201.094 305.125L202.266 308.953C194.219 314.734 188.984 324.109 188.984 334.734C188.984 352.234 203.203 366.453 220.703 366.453C238.203 366.453 252.422 352.234 252.422 334.734C252.422 331.766 252.031 328.875 251.25 326.141L255.547 322.859C258.984 320.281 259.688 315.359 257.031 311.922C254.453 308.406 249.531 307.703 246.094 310.359ZM204.609 334.656C204.609 325.75 211.797 318.562 220.703 318.562C229.609 318.562 236.797 325.75 236.797 334.656C236.797 343.562 229.609 350.75 220.703 350.75C211.797 350.75 204.609 343.562 204.609 334.656Z" fill="#0241F1"/>
<path d="M609.844 216.062H456.016V59.8125C456.016 27.1563 429.453 0.59375 396.797 0.59375H150C117.344 0.59375 90.7812 27.1563 90.7812 59.8125V517.156C90.7812 549.812 117.344 576.375 150 576.375H609.766C642.422 576.375 668.984 550.125 668.984 517.859V274.656C669.062 242.312 642.5 216.062 609.844 216.062ZM396.875 545.125H150C134.609 545.125 122.031 532.625 122.031 517.156V211.531L123.984 210.906C128.047 209.5 130.234 205.125 128.906 200.984C127.891 197.938 125.078 195.906 122.109 195.672V59.8906C122.109 44.5 134.609 31.9219 150.078 31.9219H396.875C412.266 31.9219 424.844 44.4219 424.844 59.8906V231.844C423.359 232 421.797 232.625 420.547 233.641C417.266 236.453 416.875 241.375 419.688 244.656L424.766 250.594L424.844 250.672V517.234C424.766 532.625 412.266 545.125 396.875 545.125ZM637.812 517.859C637.812 532.937 625.312 545.125 609.844 545.125H449.062C453.516 536.766 456.094 527.312 456.094 517.156V283.016C457.891 283.016 459.688 282.391 461.094 281.141C464.375 278.328 464.766 273.406 461.953 270.125L456.875 264.188C456.641 263.875 456.328 263.641 456.016 263.328V247.312H609.844C625.234 247.312 637.812 259.578 637.812 274.578V517.859Z" fill="#0241F1"/>
<path d="M507.578 323.641C504.766 320.359 499.844 319.969 496.562 322.781C493.281 325.594 492.891 330.516 495.703 333.797L500.781 339.734C502.344 341.531 504.531 342.469 506.719 342.469C508.516 342.469 510.312 341.844 511.797 340.594C515.078 337.781 515.469 332.859 512.656 329.578L507.578 323.641ZM482.188 293.953C479.375 290.672 474.453 290.281 471.172 293.094C467.891 295.906 467.5 300.828 470.313 304.109L475.391 310.047C476.953 311.844 479.141 312.781 481.328 312.781C483.125 312.781 484.922 312.156 486.406 310.906C489.687 308.094 490.078 303.172 487.266 299.891L482.188 293.953Z" fill="#0241F1"/>
<path d="M320.703 66.2188H226.172C221.875 66.2188 218.359 62.7031 218.359 58.4062C218.359 54.1094 221.875 50.5938 226.172 50.5938H320.703C325 50.5938 328.516 54.1094 328.516 58.4062C328.516 62.7031 325 66.2188 320.703 66.2188Z" fill="#0241F1"/>
<path d="M401.641 126.453C366.797 126.453 338.438 154.812 338.438 189.656C338.438 224.5 366.797 252.859 401.641 252.859C436.484 252.859 464.844 224.5 464.844 189.656C464.844 154.812 436.484 126.453 401.641 126.453ZM354.141 189.656C354.141 163.406 375.469 142.078 401.719 142.078C427.969 142.078 449.297 163.406 449.297 189.656C449.297 215.906 427.969 237.234 401.719 237.234C375.469 237.234 354.141 215.906 354.141 189.656Z" fill="#0241F1"/>
</svg>
