<svg width="584" height="449" viewBox="0 0 584 449" fill="none" xmlns="http://www.w3.org/2000/svg">
<path d="M519.6 0H64.4C47.3201 0 30.9397 6.78498 18.8623 18.8623C6.78498 30.9397 0 47.3201 0 64.4V384.4C0 401.48 6.78498 417.86 18.8623 429.938C30.9397 442.015 47.3201 448.8 64.4 448.8H519.6C536.68 448.8 553.06 442.015 565.138 429.938C577.215 417.86 584 401.48 584 384.4V64.4C584 47.3201 577.215 30.9397 565.138 18.8623C553.06 6.78498 536.68 0 519.6 0ZM64.4 24.4H519.6C530.209 24.4 540.383 28.6143 547.884 36.1157C555.386 43.6172 559.6 53.7913 559.6 64.4V93.2H24.4V64.4C24.4 53.7913 28.6143 43.6172 36.1157 36.1157C43.6172 28.6143 53.7913 24.4 64.4 24.4ZM519.6 424.4H64.4C53.7913 424.4 43.6172 420.186 36.1157 412.684C28.6143 405.183 24.4 395.009 24.4 384.4V117.6H559.6V384.4C559.6 389.653 558.565 394.854 556.555 399.707C554.545 404.56 551.599 408.97 547.884 412.684C544.17 416.399 539.76 419.345 534.907 421.355C530.054 423.365 524.853 424.4 519.6 424.4Z" fill="#0241F1"/>
<path d="M64.4 74.8C67.145 75.0422 69.8988 74.4449 72.2967 73.0872C74.6946 71.7294 76.6234 69.6752 77.8278 67.1967C79.0322 64.7182 79.4553 61.9323 79.041 59.208C78.6267 56.4837 77.3946 53.9495 75.5079 51.9411C73.6212 49.9326 71.1689 48.5447 68.4757 47.9611C65.7826 47.3776 62.9757 47.6258 60.4269 48.6731C57.878 49.7204 55.7074 51.5173 54.2026 53.8257C52.6977 56.1341 51.9296 58.8453 52 61.6C52.0853 64.939 53.3964 68.1298 55.6832 70.5642C57.9701 72.9986 61.0728 74.5064 64.4 74.8Z" fill="#0241F1"/>
<path d="M98.4 74.8C101.122 74.879 103.806 74.1388 106.102 72.6753C108.399 71.2119 110.204 69.0926 111.282 66.5918C112.361 64.0911 112.664 61.3241 112.152 58.6493C111.64 55.9744 110.337 53.5148 108.411 51.5891C106.485 49.6633 104.026 48.3601 101.351 47.8482C98.6759 47.3362 95.9089 47.6392 93.4082 48.7177C90.9074 49.7963 88.7881 51.6008 87.3247 53.8977C85.8612 56.1945 85.121 58.8777 85.2 61.6C85.3006 65.069 86.7236 68.3684 89.1776 70.8224C91.6316 73.2764 94.931 74.6994 98.4 74.8Z" fill="#0241F1"/>
<path d="M132 74.8C134.722 74.879 137.406 74.1388 139.702 72.6753C141.999 71.2119 143.804 69.0926 144.882 66.5918C145.961 64.0911 146.264 61.3241 145.752 58.6493C145.24 55.9744 143.937 53.5148 142.011 51.5891C140.085 49.6633 137.626 48.3601 134.951 47.8482C132.276 47.3362 129.509 47.6392 127.008 48.7177C124.507 49.7963 122.388 51.6008 120.925 53.8977C119.461 56.1945 118.721 58.8777 118.8 61.6C118.901 65.069 120.324 68.3684 122.778 70.8224C125.232 73.2764 128.531 74.6994 132 74.8Z" fill="#0241F1"/>
<path d="M332 235.2L316.4 270.4L300.4 235.2C300.4 235.2 300.4 235.2 297.6 232.4C294.8 229.6 297.6 230 294.4 229.2C294.4 229.2 291.6 229.2 290 229.2C288.453 228.617 286.747 228.617 285.2 229.2C285.2 229.2 282.8 231.6 282 232.4C281.2 233.2 279.6 232.4 278.8 235.2L263.2 270.4L247.6 235.2C247.035 233.478 246.112 231.895 244.89 230.557C243.668 229.219 242.175 228.155 240.511 227.437C238.848 226.718 237.05 226.361 235.238 226.389C233.426 226.418 231.641 226.83 230 227.6C228.548 228.248 227.239 229.178 226.15 230.336C225.06 231.494 224.212 232.856 223.654 234.345C223.095 235.834 222.839 237.419 222.898 239.007C222.957 240.596 223.332 242.157 224 243.6L252 307.6C253.339 309.929 255.271 311.861 257.6 313.2H267.2C269.676 311.919 271.751 309.982 273.2 307.6L288.8 272L304.8 307.6C306.139 309.929 308.071 311.861 310.4 313.2C312.109 313.608 313.891 313.608 315.6 313.2H320.4C322.729 311.861 324.661 309.929 326 307.6L353.2 247.2C354.415 244.224 354.428 240.892 353.234 237.907C352.04 234.922 349.733 232.517 346.8 231.2C344.254 230.036 341.381 229.798 338.678 230.528C335.975 231.259 333.613 232.911 332 235.2Z" fill="#0241F1"/>
<path d="M468.8 235.2L453.2 270.4L437.2 235.2C437.2 235.2 435.2 235.2 434.4 232.4C433.6 229.6 434.4 230 431.2 229.2C429.653 228.617 427.947 228.617 426.4 229.2C426.4 229.2 423.6 229.2 422 229.2C422 229.2 420 231.2 418.8 232.4C417.6 233.6 416.4 232.4 416 235.2L400 270.4L384.4 235.2C383.752 233.748 382.822 232.439 381.664 231.35C380.506 230.26 379.144 229.412 377.655 228.854C376.166 228.295 374.581 228.039 372.993 228.098C371.404 228.158 369.843 228.532 368.4 229.2C366.913 229.81 365.564 230.713 364.432 231.854C363.301 232.996 362.41 234.353 361.813 235.845C361.216 237.338 360.925 238.935 360.957 240.542C360.989 242.149 361.344 243.733 362 245.2L388.4 307.6C389.739 309.929 391.671 311.861 394 313.2H398.8C400.509 313.608 402.291 313.608 404 313.2C407.21 312.264 410.022 310.296 412 307.6L428 272L443.6 307.6C444.939 309.929 446.871 311.861 449.2 313.2C450.914 313.568 452.686 313.568 454.4 313.2H459.2C461.642 311.872 463.707 309.945 465.2 307.6L492 245.2C492.656 243.733 493.011 242.149 493.043 240.542C493.075 238.935 492.784 237.338 492.187 235.845C491.59 234.353 490.699 232.996 489.568 231.854C488.436 230.713 487.087 229.81 485.6 229.2C484.12 228.401 482.488 227.922 480.811 227.794C479.133 227.667 477.448 227.893 475.864 228.459C474.28 229.025 472.832 229.917 471.615 231.079C470.398 232.24 469.439 233.644 468.8 235.2Z" fill="#0241F1"/>
<path d="M194.4 235.2L178.8 270.4L163.2 235.2C162.314 234.184 161.223 233.366 160 232.8C159.556 230.753 158.428 228.919 156.8 227.6C155.253 227.017 153.547 227.017 152 227.6C152 227.6 149.2 227.6 147.6 227.6L144.4 230.8C144.4 230.8 142 230.8 141.6 233.6L125.6 268.8L110 233.6C109.394 231.872 108.4 230.305 107.095 229.02C105.79 227.735 104.208 226.766 102.471 226.187C100.734 225.608 98.8866 225.434 97.0716 225.679C95.2566 225.924 93.5218 226.581 92 227.6C89.0672 228.917 86.7605 231.322 85.5665 234.307C84.3725 237.292 84.3845 240.624 85.6 243.6L114 307.6C115.339 309.929 117.271 311.861 119.6 313.2H124.4C126.109 313.608 127.891 313.608 129.6 313.2H132C133.744 311.664 135.112 309.748 136 307.6L152 272L167.6 307.6C168.939 309.929 170.871 311.861 173.2 313.2H182.8C185.717 312.114 188.23 310.16 190 307.6L216.8 247.2C218.181 245.743 219.175 243.962 219.689 242.021C220.204 240.08 220.223 238.041 219.746 236.091C219.268 234.14 218.309 232.341 216.956 230.858C215.602 229.374 213.898 228.254 212 227.6C210.359 226.83 208.574 226.418 206.762 226.389C204.95 226.361 203.152 226.718 201.489 227.437C199.825 228.155 198.332 229.219 197.11 230.557C195.888 231.895 194.965 233.478 194.4 235.2Z" fill="#0241F1"/>
</svg>
