<svg width="734" height="668" viewBox="0 0 734 668" fill="none" xmlns="http://www.w3.org/2000/svg">
<path d="M533.667 134V476.642L583.667 527.01L633.667 476.642V134H533.667ZM533.667 100.667H633.667V34.4907H533.667V100.667ZM667 167.333V483.509C667 487.909 665.261 492.129 662.162 495.251L595.495 562.409C588.976 568.975 578.357 568.975 571.838 562.409L505.172 495.251C502.073 492.129 500.333 487.909 500.333 483.509V400.667H483.667C456.052 400.667 433.667 378.281 433.667 350.667V250.667C433.667 223.052 456.052 200.667 483.667 200.667H500.333V167.333H167V417.333C167 426.538 159.538 434 150.333 434H133.667C78.4382 434 33.6667 478.772 33.6667 534C33.6667 589.229 78.4382 634 133.667 634H700.333V167.333H667ZM667 134H717C726.205 134 733.667 141.462 733.667 150.667V650.667C733.667 659.871 726.205 667.333 717 667.333H133.667C60.0287 667.333 0.333344 607.638 0.333344 534V150.667C0.333344 67.824 67.4906 0.666748 150.333 0.666748C159.538 0.666748 167 8.12867 167 17.3334V134H500.333V17.824C500.333 8.61929 507.795 1.15737 517 1.15737H650.333C659.538 1.15737 667 8.61929 667 17.824V134ZM500.333 234H483.667C474.462 234 467 241.462 467 250.667V350.667C467 359.871 474.462 367.333 483.667 367.333H500.333V234ZM33.6667 445.806C58.0982 418.125 93.8436 400.667 133.667 400.667V35.1816C77.1284 43.2687 33.6667 91.8922 33.6667 150.667V445.806ZM250.333 200.667H350.333C377.948 200.667 400.333 223.052 400.333 250.667V350.667C400.333 378.281 377.948 400.667 350.333 400.667H250.333C222.719 400.667 200.333 378.281 200.333 350.667V250.667C200.333 223.052 222.719 200.667 250.333 200.667ZM250.333 234C241.129 234 233.667 241.462 233.667 250.667V350.667C233.667 359.871 241.129 367.333 250.333 367.333H350.333C359.538 367.333 367 359.871 367 350.667V250.667C367 241.462 359.538 234 350.333 234H250.333ZM217 500.667C207.795 500.667 200.333 493.205 200.333 484C200.333 474.795 207.795 467.333 217 467.333H450.333C459.538 467.333 467 474.795 467 484C467 493.205 459.538 500.667 450.333 500.667H217ZM217 567.333C207.795 567.333 200.333 559.871 200.333 550.667C200.333 541.462 207.795 534 217 534H483.667C492.871 534 500.333 541.462 500.333 550.667C500.333 559.871 492.871 567.333 483.667 567.333H217Z" fill="#0241F1"/>
</svg>
