<svg width="800" height="592" viewBox="0 0 800 592" fill="none" xmlns="http://www.w3.org/2000/svg">
<path d="M226.33 153.478C226.103 152.366 225.773 151.269 225.339 150.227C224.905 149.166 224.366 148.156 223.739 147.217C223.095 146.261 222.383 145.374 221.583 144.574C220.766 143.774 219.878 143.044 218.922 142.417C217.983 141.791 216.973 141.252 215.931 140.817C214.887 140.383 213.792 140.034 212.68 139.827C210.436 139.375 208.123 139.375 205.88 139.827C204.767 140.036 203.67 140.383 202.628 140.817C201.584 141.252 200.558 141.791 199.619 142.417C198.662 143.044 197.775 143.774 196.975 144.574C196.175 145.374 195.445 146.261 194.819 147.217C194.192 148.156 193.653 149.166 193.219 150.227C192.784 151.27 192.453 152.366 192.228 153.478C192.002 154.591 191.88 155.739 191.88 156.869C191.88 157.999 192.002 159.147 192.228 160.259C192.455 161.372 192.784 162.469 193.219 163.511C193.653 164.572 194.192 165.581 194.819 166.52C195.445 167.477 196.175 168.364 196.975 169.164C197.775 169.964 198.662 170.694 199.619 171.32C200.558 171.964 201.584 172.486 202.628 172.92C203.672 173.355 204.767 173.703 205.88 173.93C206.992 174.139 208.141 174.259 209.27 174.259C210.419 174.259 211.548 174.138 212.68 173.93C213.792 173.703 214.889 173.356 215.931 172.92C216.975 172.486 217.983 171.964 218.922 171.32C219.878 170.694 220.766 169.964 221.583 169.164C222.383 168.364 223.095 167.477 223.739 166.52C224.366 165.581 224.905 164.572 225.339 163.511C225.773 162.467 226.105 161.372 226.33 160.259C226.555 159.147 226.659 157.999 226.659 156.869C226.659 155.739 226.556 154.591 226.33 153.478Z" fill="#0241F1"/>
<path d="M782.609 243.827H730.436V156.87C730.436 147.266 722.65 139.48 713.045 139.48H417.391V101.706C437.633 94.5267 452.173 75.197 452.173 52.5235C452.173 23.7548 428.769 0.350098 400 0.350098C371.231 0.350098 347.827 23.7548 347.827 52.5235C347.827 75.1954 362.367 94.5267 382.609 101.706V139.48H262.03C252.425 139.48 244.639 147.266 244.639 156.87C244.639 166.475 252.425 174.261 262.03 174.261H695.652V556.869H104.348V174.261H156.522C166.127 174.261 173.913 166.475 173.913 156.87C173.913 147.266 166.127 139.48 156.522 139.48H86.9563C77.3516 139.48 69.5656 147.266 69.5656 156.87V243.827H17.3906C7.78594 243.827 0 251.613 0 261.217V469.913C0 479.517 7.78594 487.303 17.3906 487.303H69.5641V574.259C69.5641 583.864 77.35 591.65 86.9547 591.65H713.042C722.647 591.65 730.433 583.864 730.433 574.259V487.303H782.606C792.211 487.303 799.997 479.517 799.997 469.913V261.217C800 251.613 792.214 243.827 782.609 243.827ZM400 69.9126C390.411 69.9126 382.609 62.111 382.609 52.522C382.609 42.9329 390.411 35.1313 400 35.1313C409.589 35.1313 417.391 42.9329 417.391 52.522C417.391 62.111 409.589 69.9126 400 69.9126ZM69.5656 452.522H34.7828V278.609H69.5656V452.522ZM765.217 452.522H730.434V278.609H765.217V452.522Z" fill="#0241F1"/>
<path d="M260.87 278.609C232.102 278.609 208.697 302.014 208.697 330.783C208.697 359.552 232.102 382.956 260.87 382.956C289.639 382.956 313.044 359.552 313.044 330.783C313.044 302.014 289.639 278.609 260.87 278.609ZM260.87 348.174C251.281 348.174 243.48 340.372 243.48 330.783C243.48 321.194 251.281 313.392 260.87 313.392C270.459 313.392 278.261 321.194 278.261 330.783C278.261 340.372 270.459 348.174 260.87 348.174Z" fill="#0241F1"/>
<path d="M539.13 278.609C510.361 278.609 486.956 302.014 486.956 330.783C486.956 359.552 510.361 382.956 539.13 382.956C567.898 382.956 591.303 359.552 591.303 330.783C591.305 302.014 567.898 278.609 539.13 278.609ZM539.13 348.174C529.541 348.174 521.739 340.372 521.739 330.783C521.739 321.194 529.541 313.392 539.13 313.392C548.719 313.392 556.52 321.194 556.52 330.783C556.52 340.372 548.72 348.174 539.13 348.174Z" fill="#0241F1"/>
<path d="M486.956 382.956H313.044C303.439 382.956 295.653 390.742 295.653 400.347C295.653 457.885 342.464 504.695 400.002 504.695C457.539 504.695 504.35 457.885 504.35 400.347C504.348 390.742 496.561 382.956 486.956 382.956ZM400 469.913C367.645 469.913 340.378 447.709 332.636 417.739H467.364C459.622 447.709 432.355 469.913 400 469.913Z" fill="#0241F1"/>
</svg>
