<svg width="700" height="584" viewBox="0 0 700 584" fill="none" xmlns="http://www.w3.org/2000/svg">
<path d="M341.641 420.625C341.641 421.651 341.843 422.667 342.235 423.615C342.628 424.563 343.203 425.424 343.929 426.149C344.654 426.875 345.516 427.45 346.463 427.843C347.411 428.235 348.427 428.438 349.453 428.438C350.479 428.438 351.495 428.235 352.443 427.843C353.391 427.45 354.252 426.875 354.977 426.149C355.703 425.424 356.278 424.563 356.671 423.615C357.064 422.667 357.266 421.651 357.266 420.625C357.266 418.553 356.443 416.566 354.977 415.101C353.512 413.636 351.525 412.812 349.453 412.812C347.381 412.812 345.394 413.636 343.929 415.101C342.464 416.566 341.641 418.553 341.641 420.625Z" fill="#0241F1"/>
<path d="M700 482.422V0H0V482.422H250.078V549.219H150.156V583.594H550.078V549.219H450.078V482.422H700ZM34.375 34.375H665.625V368.047H34.375V34.375ZM415.703 549.219H284.453V482.422H415.703V549.219ZM34.375 448.047V383.594H665.625V448.047H34.375Z" fill="#0241F1"/>
<path d="M80.8875 147.815L151.763 76.9391L162.812 87.9875L91.9359 158.862L80.8875 147.815ZM85.1242 222.632L155.889 151.866L226.655 81.1008L237.703 92.15L96.1719 233.68L85.1242 222.632Z" fill="#0241F1"/>
</svg>
