<svg width="192" height="53" viewBox="0 0 192 53" fill="none" xmlns="http://www.w3.org/2000/svg">
<path d="M188.863 14.328C189.311 14.328 189.807 14.36 190.351 14.424C190.895 14.456 191.343 14.504 191.695 14.568L191.167 19.32C190.815 19.224 190.399 19.144 189.919 19.08C189.439 19.016 188.991 18.984 188.575 18.984C187.615 18.984 186.687 19.176 185.791 19.56C184.927 19.912 184.143 20.44 183.439 21.144C182.735 21.816 182.175 22.648 181.759 23.64C181.375 24.632 181.183 25.768 181.183 27.048V40.68H176.095V14.808H180.127L180.799 19.416H180.991C181.535 18.488 182.191 17.64 182.959 16.872C183.727 16.104 184.607 15.496 185.599 15.048C186.591 14.568 187.679 14.328 188.863 14.328Z" fill="black"/>
<path d="M165.86 41.16C163.492 41.16 161.412 40.696 159.62 39.768C157.828 38.84 156.436 37.4 155.444 35.448C154.452 33.464 153.956 30.952 153.956 27.912C153.956 24.712 154.484 22.12 155.54 20.136C156.628 18.152 158.084 16.696 159.908 15.768C161.764 14.808 163.876 14.328 166.244 14.328C167.684 14.328 169.028 14.488 170.276 14.808C171.556 15.096 172.612 15.432 173.444 15.816L171.908 19.944C171.012 19.592 170.052 19.288 169.028 19.032C168.036 18.776 167.092 18.648 166.196 18.648C164.596 18.648 163.268 19 162.212 19.704C161.188 20.376 160.42 21.4 159.908 22.776C159.428 24.12 159.188 25.816 159.188 27.864C159.188 29.816 159.444 31.464 159.956 32.808C160.468 34.152 161.22 35.176 162.212 35.88C163.236 36.552 164.5 36.888 166.004 36.888C167.444 36.888 168.708 36.728 169.796 36.408C170.884 36.088 171.908 35.672 172.868 35.16V39.576C171.94 40.12 170.932 40.52 169.844 40.776C168.756 41.032 167.428 41.16 165.86 41.16Z" fill="black"/>
<path d="M141.47 14.328C144.574 14.328 147.07 15.448 148.958 17.688C150.878 19.928 151.838 23.272 151.838 27.72C151.838 30.632 151.406 33.096 150.542 35.112C149.678 37.128 148.462 38.648 146.894 39.672C145.326 40.664 143.502 41.16 141.422 41.16C140.11 41.16 138.958 41 137.966 40.68C136.974 40.328 136.126 39.88 135.422 39.336C134.75 38.76 134.158 38.152 133.646 37.512H133.31C133.406 38.088 133.486 38.776 133.55 39.576C133.614 40.344 133.646 41.032 133.646 41.64V52.2H128.558V14.808H132.686L133.406 18.264H133.646C134.158 17.56 134.766 16.904 135.47 16.296C136.174 15.688 137.022 15.208 138.014 14.856C139.006 14.504 140.158 14.328 141.47 14.328ZM140.27 18.504C138.67 18.504 137.39 18.824 136.43 19.464C135.47 20.072 134.766 21 134.318 22.248C133.902 23.464 133.678 25.016 133.646 26.904V27.672C133.646 29.656 133.854 31.352 134.27 32.76C134.686 34.136 135.374 35.192 136.334 35.928C137.326 36.632 138.67 36.984 140.366 36.984C141.806 36.984 142.974 36.6 143.87 35.832C144.798 35.032 145.486 33.928 145.934 32.52C146.382 31.112 146.606 29.48 146.606 27.624C146.606 24.808 146.094 22.584 145.07 20.952C144.046 19.32 142.446 18.504 140.27 18.504Z" fill="black"/>
<path d="M114.308 14.328C117.316 14.328 119.62 15.08 121.22 16.584C122.82 18.088 123.62 20.504 123.62 23.832V40.68H118.58V24.552C118.58 22.536 118.148 21.032 117.284 20.04C116.452 19.016 115.108 18.504 113.252 18.504C110.628 18.504 108.804 19.288 107.78 20.856C106.788 22.424 106.292 24.68 106.292 27.624V40.68H101.204V14.808H105.236L105.956 18.264H106.244C106.82 17.368 107.524 16.632 108.356 16.056C109.188 15.48 110.116 15.048 111.14 14.76C112.164 14.472 113.22 14.328 114.308 14.328Z" fill="black"/>
<path d="M86.791 14.328C89.063 14.328 91.015 14.808 92.647 15.768C94.279 16.696 95.527 18.04 96.391 19.8C97.287 21.56 97.735 23.64 97.735 26.04V28.824H80.359C80.423 31.48 81.111 33.512 82.423 34.92C83.767 36.328 85.639 37.032 88.039 37.032C89.703 37.032 91.175 36.888 92.455 36.6C93.767 36.28 95.111 35.816 96.487 35.208V39.432C95.207 40.008 93.895 40.44 92.551 40.728C91.239 41.016 89.671 41.16 87.847 41.16C85.351 41.16 83.143 40.664 81.223 39.672C79.303 38.68 77.799 37.208 76.711 35.256C75.655 33.272 75.127 30.84 75.127 27.96C75.127 25.048 75.607 22.584 76.567 20.568C77.559 18.552 78.919 17.016 80.647 15.96C82.407 14.872 84.455 14.328 86.791 14.328ZM86.791 18.264C84.967 18.264 83.495 18.856 82.375 20.04C81.287 21.224 80.647 22.904 80.455 25.08H92.647C92.647 23.736 92.439 22.552 92.023 21.528C91.607 20.504 90.967 19.704 90.103 19.128C89.239 18.552 88.135 18.264 86.791 18.264Z" fill="black"/>
<path d="M70.432 37.032C71.104 37.032 71.792 36.968 72.496 36.84C73.2 36.712 73.808 36.568 74.32 36.408V40.248C73.776 40.504 73.04 40.712 72.112 40.872C71.184 41.064 70.256 41.16 69.328 41.16C67.92 41.16 66.624 40.92 65.44 40.44C64.288 39.96 63.36 39.128 62.656 37.944C61.952 36.76 61.6 35.112 61.6 33V18.696H58V16.392L61.792 14.472L63.568 9H66.688V14.808H74.08V18.696H66.688V32.904C66.688 34.312 67.024 35.352 67.696 36.024C68.4 36.696 69.312 37.032 70.432 37.032Z" fill="black"/>
<path d="M0 12.3562C0 5.53204 5.53204 0 12.3562 0H37.7549C44.5791 0 50.1111 5.53204 50.1111 12.3562V37.7549C50.1111 44.5791 44.5791 50.1111 37.7549 50.1111H12.3562C5.53204 50.1111 0 44.5791 0 37.7549V12.3562Z" fill="#0241F1"/>
<path d="M33.4573 43.4939C32.2287 41.721 31.0738 39.9767 29.9927 38.2611C28.933 36.5331 27.9505 34.8889 27.0451 33.3284C25.5445 30.742 24.2523 28.3917 23.1686 26.2776C22.0725 24.1421 21.1438 22.2953 20.3825 20.7369C18.6062 21.9104 16.902 23.0849 15.2697 24.2605C13.6375 25.436 12.1645 26.5906 10.8508 27.7243L7.80825 22.3324C10.0488 20.4325 12.4278 18.6236 14.9455 16.9058C17.4507 15.1666 20.0179 13.5342 22.6471 12.0088C24.5282 10.9174 26.3485 9.91839 28.1082 9.01173C29.8893 8.09267 31.6203 7.25976 33.3013 6.51302L36.4876 12.0786C34.8549 12.7117 33.1373 13.4939 31.3349 14.4254C29.5414 15.323 27.7362 16.299 25.9193 17.3531C26.6557 18.8687 27.5021 20.5491 28.4584 22.3943C29.4022 24.2181 30.4633 26.1453 31.6414 28.176C32.6956 29.993 33.8484 31.8813 35.0997 33.841C36.3723 35.7883 37.7284 37.8301 39.1678 39.9664L33.4573 43.4939Z" fill="white"/>
</svg>
