<?xml version="1.0" encoding="utf-8"?>
<!-- Generator: Adobe Illustrator 23.1.0, SVG Export Plug-In . SVG Version: 6.00 Build 0)  -->
<svg version="1.1" id="Layer_1" xmlns="http://www.w3.org/2000/svg" xmlns:xlink="http://www.w3.org/1999/xlink" x="0px" y="0px"
	 viewBox="0 0 630 169" style="enable-background:new 0 0 630 169;" xml:space="preserve">
<style type="text/css">
	.st0{fill:#FF0000;}
</style>
<path class="st0" d="M123.65,53.07C117.77,20.19,85.97-1.72,53.27,4.51C21.02,10.66-0.3,41.29,4.94,73.87
	c1.85,11.5,5.9,22.22,11.28,32.45c11.52,21.9,27.03,40.72,44.49,58.03c2.59,2.57,4.83,2.53,7.42-0.01
	c7.83-7.69,15.2-15.8,22.06-24.37c10.97-13.7,20.69-28.18,27.44-44.5c4.17-10.08,6.89-20.49,7.22-31.51
	C124.46,60.34,124.29,56.66,123.65,53.07z M79.5,109.56c0.08-2.42,0.22-5.9,0.42-9.03c0.36-5.49,3.68-14.6,3.68-14.6
	c5.43-21.26-2.71-43.2-7.27-46.62c-4.56-3.41-3.98,3.12-3.98,3.12s0.29,15.21,0.48,23.6c0.17,7.29,0.56,37.34,0.66,45.08
	c-2.91,0.56-5.92,0.85-9,0.85c-2.22,0-4.41-0.16-6.55-0.45l-0.41-24.1c0,0,4.15-5.78,5.75-13.53c1.6-7.75,1.16-12.65,0.36-19.75
	c-0.67-5.96-1.81-12.34-2.15-14.22c-0.07-0.36-0.2-0.74-0.35-0.95c-0.16-0.23-0.37-0.49-0.58-0.59c-0.04-0.02-0.14-0.02-0.16,0.03
	c-0.39,1.5-0.32,26.63-0.32,26.63s-0.1,0.9-0.82,0.9c-0.73,0-1.09-0.15-1.24-1.02c-0.15-0.88-0.87-25.97-0.87-25.97
	s-0.12-0.61-0.44-0.61c-0.32,0-0.51,0.51-0.51,0.51l-0.65,26.09c0,0-0.05,1.11-1.1,1.13v-0.01c-0.03,0-0.06,0.01-0.09,0.01
	c-1.08,0-1.13-1.13-1.13-1.13l-0.65-26.09c0,0-0.19-0.51-0.51-0.51c-0.32,0-0.44,0.61-0.44,0.61s-0.73,25.09-0.87,25.97
	c-0.15,0.88-0.51,1.02-1.24,1.02c-0.73,0-0.82-0.9-0.82-0.9s0.07-25.12-0.32-26.63c-0.01-0.05-0.12-0.05-0.16-0.03
	c-0.21,0.1-0.42,0.36-0.58,0.59c-0.15,0.21-0.28,0.59-0.35,0.95c-0.34,1.88-1.48,8.26-2.15,14.22c-0.8,7.1-1.24,12,0.36,19.75
	c1.6,7.75,5.75,13.53,5.75,13.53l-0.38,22.59c-19.87-5.91-34.37-24.39-34.37-46.29c0-26.66,21.49-48.27,47.99-48.27
	s47.99,21.61,47.99,48.27C112.49,85.08,98.66,103.22,79.5,109.56z"/>
<g>
	<path class="st0" d="M145.99,131.27c-3.72,0-6.38-1.24-7.97-3.72c-1.59-2.48-1.55-5.53,0.13-9.17l34.01-74.52
		c1.42-3.01,3.1-5.2,5.05-6.58c1.95-1.37,4.2-2.06,6.77-2.06c2.57,0,4.83,0.69,6.77,2.06c1.95,1.37,3.59,3.57,4.92,6.58l34.27,74.52
		c1.68,3.72,1.75,6.8,0.2,9.23c-1.55,2.44-4.05,3.65-7.51,3.65c-3.01,0-5.34-0.71-6.97-2.13c-1.64-1.42-3.08-3.63-4.32-6.64
		l-5.58-12.75h-43.71l-5.45,12.75c-1.33,3.1-2.75,5.34-4.25,6.71C150.86,130.58,148.73,131.27,145.99,131.27z M183.72,58.34
		l-14.75,35.34h30.02l-15.01-35.34H183.72z"/>
	<path class="st0" d="M253.72,131.27c-3.37,0-5.93-0.93-7.71-2.79c-1.77-1.86-2.66-4.47-2.66-7.84V46.91
		c0-6.99,3.5-10.49,10.5-10.49h32.28c10.45,0,18.51,2.64,24.18,7.9c5.67,5.27,8.5,12.6,8.5,21.99c0,9.39-2.84,16.74-8.5,22.05
		c-5.67,5.31-13.73,7.97-24.18,7.97h-22.18v24.31c0,3.37-0.86,5.98-2.59,7.84C259.63,130.34,257.09,131.27,253.72,131.27z
		 M263.95,80.39h18.73c10.89,0,16.34-4.69,16.34-14.08c0-9.21-5.45-13.82-16.34-13.82h-18.73V80.39z"/>
	<path class="st0" d="M341.93,131.27c-3.37,0-5.93-0.93-7.71-2.79c-1.77-1.86-2.66-4.47-2.66-7.84V46.91
		c0-6.99,3.5-10.49,10.49-10.49h32.28c10.45,0,18.51,2.64,24.18,7.9c5.67,5.27,8.5,12.6,8.5,21.99c0,9.39-2.84,16.74-8.5,22.05
		c-5.67,5.31-13.73,7.97-24.18,7.97h-22.18v24.31c0,3.37-0.86,5.98-2.59,7.84C347.84,130.34,345.29,131.27,341.93,131.27z
		 M352.16,80.39h18.73c10.89,0,16.34-4.69,16.34-14.08c0-9.21-5.45-13.82-16.34-13.82h-18.73V80.39z"/>
	<path class="st0" d="M430.14,131.27c-3.37,0-5.93-0.93-7.71-2.79c-1.77-1.86-2.66-4.47-2.66-7.84V45.72c0-3.36,0.88-5.95,2.66-7.77
		c1.77-1.82,4.34-2.72,7.71-2.72c6.82,0,10.23,3.5,10.23,10.5V77.2h0.27l35.34-36.93c1.51-1.59,3.08-2.81,4.72-3.65
		c1.64-0.84,3.52-1.26,5.65-1.26c3.01,0,5.22,0.8,6.64,2.39c1.42,1.59,2.04,3.48,1.86,5.65c-0.18,2.17-1.15,4.14-2.92,5.91
		l-31.22,31.88l33.08,35.2c2.04,2.22,3.08,4.47,3.12,6.77c0.04,2.3-0.71,4.23-2.26,5.78c-1.55,1.55-3.83,2.32-6.84,2.32
		c-2.57,0-4.63-0.53-6.18-1.59c-1.55-1.06-3.25-2.61-5.11-4.65l-35.87-37.73h-0.27v33.34c0,3.37-0.86,5.98-2.59,7.84
		C436.05,130.34,433.5,131.27,430.14,131.27z"/>
	<path class="st0" d="M521.53,131.27c-3.37,0-5.93-0.93-7.71-2.79c-1.77-1.86-2.66-4.47-2.66-7.84V45.85
		c0-7.08,3.45-10.63,10.36-10.63c6.82,0,10.23,3.54,10.23,10.63v74.79C531.76,127.72,528.35,131.27,521.53,131.27z"/>
	<path class="st0" d="M555.24,131.27c-6.38,0-9.56-3.32-9.56-9.96V45.58c0-3.37,0.82-5.93,2.46-7.71c1.64-1.77,3.83-2.66,6.58-2.66
		c2.3,0,4.12,0.47,5.45,1.4c1.33,0.93,2.83,2.46,4.52,4.58l43.04,54.86V45.05c0-6.55,3.19-9.83,9.56-9.83
		c6.38,0,9.56,3.28,9.56,9.83v76.65c0,2.92-0.75,5.25-2.26,6.98c-1.51,1.73-3.54,2.59-6.11,2.59c-2.48,0-4.45-0.49-5.91-1.46
		c-1.46-0.97-3.03-2.52-4.72-4.65L564.8,70.29v51.01C564.8,127.95,561.61,131.27,555.24,131.27z"/>
</g>
</svg>
